# xmcd
#
# Track frame offsets: 
#        150
#        15611
#        40745
#        55161
#        81488
#        111188
#        140026
#        171485
#        200379
#        234135
#        249841
#        266380
#        291780
#        308153
#
# Disc length: 4547 seconds
#
# Revision: 1
# Processed by: cddbd v1.5.1PL0 Copyright (c) Steve Scherf et al.
# Submitted via: ExactAudioCopy v0.95a4
#
DISCID=bd11c10e
DTITLE=Various Artist - ATB And AllStars. (2001)
DYEAR=2001
DGENRE=Eurodance
TTITLE0=ATB - Hold You (Airplay Mix)
TTITLE1=Fragma - Toca's Miracle (Club Mix)
TTITLE2=ATB - 9 PM (Till I Come)
TTITLE3=Woody Van Eyden ft. Grace - Get Ready (Spacekid Mix)
TTITLE4=ATB - Let U Go (Wippenberg Mix)
TTITLE5=Gardeweg - It's Time (CJ Stone Rmx)
TTITLE6=ATB - My Dream
TTITLE7=DJ Combo - Rock It To The Beat (Club Mix)
TTITLE8=ATB ft. York - The Fields Of Love (York Rmx)
TTITLE9=CJ Stone - Into The Sea (Original Mix)
TTITLE10=ATB - Don't Stop
TTITLE11=Mythos 'N DJ Cosmo - Send Me An Angel (Extended Vocal)
TTITLE12=ATB - The Summer
TTITLE13=ATB - Hold You (Club Mix 1)
EXTD=
EXTT0=
EXTT1=
EXTT2=
EXTT3=
EXTT4=
EXTT5=
EXTT6=
EXTT7=
EXTT8=
EXTT9=
EXTT10=
EXTT11=
EXTT12=
EXTT13=
PLAYORDER=
